<svg width="20" height="24" viewBox="0 0 20 24" fill="none" xmlns="http://www.w3.org/2000/svg">
<path d="M16.9287 9.99038L15.4877 9.38938L17.2047 8.47638C17.7285 8.20207 18.1928 7.8268 18.5708 7.3722C18.9489 6.9176 19.2332 6.39265 19.4074 5.82764C19.5816 5.26262 19.6423 4.66871 19.5859 4.08014C19.5294 3.49158 19.3571 2.92 19.0787 2.39838C18.5195 1.34237 17.5638 0.551706 16.4218 0.200274C15.2797 -0.151159 14.0448 -0.0345779 12.9887 0.524376L2.78969 5.92938C2.03201 6.32749 1.40358 6.93343 0.978129 7.67611C0.552679 8.41879 0.347856 9.2674 0.38769 10.1224C0.428429 10.9558 0.699062 11.7616 1.16961 12.4507C1.64016 13.1398 2.29227 13.6851 3.05369 14.0264C3.08969 14.0384 4.49569 14.6264 4.49569 14.6264L2.78969 15.5274C2.07378 15.9135 1.47563 16.4861 1.05858 17.1845C0.641536 17.8828 0.421125 18.681 0.42069 19.4944C0.426997 20.6877 0.903897 21.8303 1.74779 22.674C2.59168 23.5177 3.73439 23.9943 4.92769 24.0004C5.65269 24.0004 6.36469 23.8264 7.00769 23.4924L17.2177 18.0864C17.9738 17.6876 18.6003 17.0813 19.0237 16.3387C19.4471 15.5961 19.6497 14.7481 19.6077 13.8944C19.5648 13.06 19.2919 12.2537 18.8193 11.5647C18.3466 10.8757 17.6917 10.3309 16.9287 9.99038ZM7.59469 15.1904V8.82438L13.6017 12.0084L7.59469 15.1904Z" fill="#353535"/>
</svg>
